<svg width="256" height="256" viewBox="0 0 256 256" fill="none" xmlns="http://www.w3.org/2000/svg" role="img" aria-label="ShadowScript logo">
  <defs>
    <radialGradient id="g" cx="0" cy="0" r="1" gradientUnits="userSpaceOnUse" gradientTransform="translate(128 96) rotate(90) scale(160)">
      <stop stop-color="#E11D48"/>
      <stop offset="1" stop-color="#0C0C0E"/>
    </radialGradient>
    <linearGradient id="stroke" x1="40" y1="40" x2="216" y2="216" gradientUnits="userSpaceOnUse">
      <stop stop-color="#E11D48"/>
      <stop offset="1" stop-color="#F97316"/>
    </linearGradient>
  </defs>
  <rect x="24" y="24" width="208" height="208" rx="52" fill="rgba(255,255,255,0.03)"/>
  <rect x="24.5" y="24.5" width="207" height="207" rx="51.5" stroke="rgba(255,255,255,0.10)"/>
  <circle cx="128" cy="128" r="74" fill="url(#g)" opacity="0.28"/>
  <path d="M86 92c0-16 13-28 30-28h48" stroke="url(#stroke)" stroke-width="14" stroke-linecap="round"/>
  <path d="M170 164c0 16-13 28-30 28H92" stroke="url(#stroke)" stroke-width="14" stroke-linecap="round"/>
  <path d="M168 92h-46c-9 0-16 6-16 14s7 14 16 14h12c23 0 34 12 34 30 0 19-15 34-36 34H88" stroke="#E6EDF3" stroke-opacity="0.85" stroke-width="10" stroke-linecap="round"/>
</svg>

